<svg id="visual" viewBox="0 0 900 600" width="900" height="600" xmlns="http://www.w3.org/2000/svg" xmlns:xlink="http://www.w3.org/1999/xlink" version="1.1"><rect x="0" y="0" width="900" height="600" fill="#303030"></rect><path d="M536 600L544.3 585.7C552.7 571.3 569.3 542.7 582.3 514.2C595.3 485.7 604.7 457.3 602.8 428.8C601 400.3 588 371.7 593.7 343C599.3 314.3 623.7 285.7 627.8 257C632 228.3 616 199.7 601.5 171.2C587 142.7 574 114.3 569.3 85.8C564.7 57.3 568.3 28.7 570.2 14.3L572 0L900 0L900 14.3C900 28.7 900 57.3 900 85.8C900 114.3 900 142.7 900 171.2C900 199.7 900 228.3 900 257C900 285.7 900 314.3 900 343C900 371.7 900 400.3 900 428.8C900 457.3 900 485.7 900 514.2C900 542.7 900 571.3 900 585.7L900 600Z" fill="#0eabff"></path><path d="M619 600L623 585.7C627 571.3 635 542.7 639.7 514.2C644.3 485.7 645.7 457.3 649 428.8C652.3 400.3 657.7 371.7 659 343C660.3 314.3 657.7 285.7 652.2 257C646.7 228.3 638.3 199.7 630.8 171.2C623.3 142.7 616.7 114.3 621.7 85.8C626.7 57.3 643.3 28.7 651.7 14.3L660 0L900 0L900 14.3C900 28.7 900 57.3 900 85.8C900 114.3 900 142.7 900 171.2C900 199.7 900 228.3 900 257C900 285.7 900 314.3 900 343C900 371.7 900 400.3 900 428.8C900 457.3 900 485.7 900 514.2C900 542.7 900 571.3 900 585.7L900 600Z" fill="#0097ff"></path><path d="M759 600L752.5 585.7C746 571.3 733 542.7 732.3 514.2C731.7 485.7 743.3 457.3 754 428.8C764.7 400.3 774.3 371.7 772.2 343C770 314.3 756 285.7 749.2 257C742.3 228.3 742.7 199.7 740.3 171.2C738 142.7 733 114.3 723.8 85.8C714.7 57.3 701.3 28.7 694.7 14.3L688 0L900 0L900 14.3C900 28.7 900 57.3 900 85.8C900 114.3 900 142.7 900 171.2C900 199.7 900 228.3 900 257C900 285.7 900 314.3 900 343C900 371.7 900 400.3 900 428.8C900 457.3 900 485.7 900 514.2C900 542.7 900 571.3 900 585.7L900 600Z" fill="#0080ff"></path><path d="M791 600L791.3 585.7C791.7 571.3 792.3 542.7 797.7 514.2C803 485.7 813 457.3 808.8 428.8C804.7 400.3 786.3 371.7 787 343C787.7 314.3 807.3 285.7 818 257C828.7 228.3 830.3 199.7 825.8 171.2C821.3 142.7 810.7 114.3 813.8 85.8C817 57.3 834 28.7 842.5 14.3L851 0L900 0L900 14.3C900 28.7 900 57.3 900 85.8C900 114.3 900 142.7 900 171.2C900 199.7 900 228.3 900 257C900 285.7 900 314.3 900 343C900 371.7 900 400.3 900 428.8C900 457.3 900 485.7 900 514.2C900 542.7 900 571.3 900 585.7L900 600Z" fill="#0066ff"></path></svg>