<svg id="visual" viewBox="0 0 675 900" width="675" height="900" xmlns="http://www.w3.org/2000/svg" xmlns:xlink="http://www.w3.org/1999/xlink" version="1.1"><rect x="0" y="0" width="675" height="900" fill="#303030"></rect><path d="M0 459L96 459L96 531L193 531L193 416L289 416L289 384L386 384L386 422L482 422L482 497L579 497L579 380L675 380L675 475L675 901L675 901L579 901L579 901L482 901L482 901L386 901L386 901L289 901L289 901L193 901L193 901L96 901L96 901L0 901Z" fill="#0160ff"></path><path d="M0 542L96 542L96 579L193 579L193 687L289 687L289 646L386 646L386 688L482 688L482 526L579 526L579 530L675 530L675 684L675 901L675 901L579 901L579 901L482 901L482 901L386 901L386 901L289 901L289 901L193 901L193 901L96 901L96 901L0 901Z" fill="#0e3dc5"></path><path d="M0 686L96 686L96 732L193 732L193 798L289 798L289 818L386 818L386 714L482 714L482 681L579 681L579 706L675 706L675 690L675 901L675 901L579 901L579 901L482 901L482 901L386 901L386 901L289 901L289 901L193 901L193 901L96 901L96 901L0 901Z" fill="#001c8f"></path></svg>