<svg id="visual" viewBox="0 0 540 960" width="540" height="960" xmlns="http://www.w3.org/2000/svg" xmlns:xlink="http://www.w3.org/1999/xlink" version="1.1"><rect width="540" height="960" fill="#303030"></rect><g><g transform="translate(85 162)"><path d="M0 -42.1L36.4 -21L36.4 21L0 42.1L-36.4 21L-36.4 -21Z" fill="none" stroke="#9f00ff" stroke-width="2"></path></g><g transform="translate(80 423)"><path d="M0 -31L26.8 -15.5L26.8 15.5L0 31L-26.8 15.5L-26.8 -15.5Z" fill="none" stroke="#9f00ff" stroke-width="2"></path></g><g transform="translate(262 889)"><path d="M0 -20L17.3 -10L17.3 10L0 20L-17.3 10L-17.3 -10Z" fill="none" stroke="#9f00ff" stroke-width="2"></path></g><g transform="translate(172 126)"><path d="M0 -28L24.2 -14L24.2 14L0 28L-24.2 14L-24.2 -14Z" fill="none" stroke="#9f00ff" stroke-width="2"></path></g><g transform="translate(138 720)"><path d="M0 -40L34.6 -20L34.6 20L0 40L-34.6 20L-34.6 -20Z" fill="none" stroke="#9f00ff" stroke-width="2"></path></g><g transform="translate(271 218)"><path d="M0 -37L32 -18.5L32 18.5L0 37L-32 18.5L-32 -18.5Z" fill="none" stroke="#9f00ff" stroke-width="2"></path></g><g transform="translate(210 588)"><path d="M0 -11L9.5 -5.5L9.5 5.5L0 11L-9.5 5.5L-9.5 -5.5Z" fill="none" stroke="#9f00ff" stroke-width="2"></path></g><g transform="translate(247 726)"><path d="M0 -17L14.7 -8.5L14.7 8.5L0 17L-14.7 8.5L-14.7 -8.5Z" fill="none" stroke="#9f00ff" stroke-width="2"></path></g><g transform="translate(466 750)"><path d="M0 -22L19.1 -11L19.1 11L0 22L-19.1 11L-19.1 -11Z" stroke="#9f00ff" fill="none" stroke-width="2"></path></g><g transform="translate(446 369)"><path d="M0 -17L14.7 -8.5L14.7 8.5L0 17L-14.7 8.5L-14.7 -8.5Z" stroke="#9f00ff" fill="none" stroke-width="2"></path></g><g transform="translate(479 633)"><path d="M0 -26L22.5 -13L22.5 13L0 26L-22.5 13L-22.5 -13Z" stroke="#9f00ff" fill="none" stroke-width="2"></path></g><g transform="translate(183 855)"><path d="M0 -40L34.6 -20L34.6 20L0 40L-34.6 20L-34.6 -20Z" stroke="#9f00ff" fill="none" stroke-width="2"></path></g><g transform="translate(429 186)"><path d="M0 -24L20.8 -12L20.8 12L0 24L-20.8 12L-20.8 -12Z" stroke="#9f00ff" fill="none" stroke-width="2"></path></g><g transform="translate(333 636)"><path d="M0 -39L33.8 -19.5L33.8 19.5L0 39L-33.8 19.5L-33.8 -19.5Z" stroke="#9f00ff" fill="none" stroke-width="2"></path></g><g transform="translate(71 72)"><path d="M0 -18L15.6 -9L15.6 9L0 18L-15.6 9L-15.6 -9Z" stroke="#9f00ff" fill="none" stroke-width="2"></path></g><g transform="translate(44 843)"><path d="M0 -27L23.4 -13.5L23.4 13.5L0 27L-23.4 13.5L-23.4 -13.5Z" stroke="#9f00ff" fill="none" stroke-width="2"></path></g></g></svg>